<?xml version="1.0" standalone="no"?><!DOCTYPE svg PUBLIC "-//W3C//DTD SVG 1.1//EN" "http://www.w3.org/Graphics/SVG/1.1/DTD/svg11.dtd"><svg t="1548301637896" class="icon" style="" viewBox="0 0 1024 1024" version="1.1" xmlns="http://www.w3.org/2000/svg" p-id="733" xmlns:xlink="http://www.w3.org/1999/xlink" width="200" height="200"><defs><style type="text/css"></style></defs><path d="M569.508769 653.352619l151.594419 0 0 108.819221-151.594419 0L569.508769 653.352619zM569.508769 65.693452l385.479045 0 0 108.828814L569.508569 174.522266 569.508769 65.693452 569.508769 65.693452zM569.508769 261.583239l307.513506 0 0 108.819021L569.508769 370.402259 569.508769 261.583239 569.508769 261.583239zM569.508769 457.463032l229.552363 0 0 108.821019-229.552363 0C569.508769 566.284051 569.508769 457.463032 569.508769 457.463032zM569.508769 849.232612l73.62868 0 0 108.826815-73.62868 0L569.508769 849.232612zM354.693414 427.846912l0 530.212516L203.94622 958.059428 203.94622 427.846912 62.754748 427.846912 279.308125 65.187795 495.87849 427.846912 354.693414 427.846912z" p-id="734"></path></svg>