<?xml version="1.0" standalone="no"?><!DOCTYPE svg PUBLIC "-//W3C//DTD SVG 1.1//EN" "http://www.w3.org/Graphics/SVG/1.1/DTD/svg11.dtd"><svg t="1535421832183" class="icon" style="" viewBox="0 0 1024 1024" version="1.1" xmlns="http://www.w3.org/2000/svg" p-id="11887" xmlns:xlink="http://www.w3.org/1999/xlink" width="200" height="200"><defs><style type="text/css"></style></defs><path d="M191.8 203h391.3c217.9 0 395.4 171 395.4 382.1 0 211.3-177.5 382.1-395.4 382.1H100.3c-21.4 0-39.4-17.5-39-39 0.4-20.8 17.4-37.5 38.2-37.5h483.6C759.4 890.7 902 753.4 902 585c0-168.3-142.6-305.7-318.9-305.7H191.8l87.7 87.6c14.9 14.9 14.9 39.2 0 54.1-14.9 14.9-39.2 14.9-54.1 0L72.7 268.4c-15-15-15-39.4 0-54.5L225.3 61.2c14.9-14.9 39.2-14.9 54.1 0 14.9 14.9 14.9 39.2 0 54.1L191.8 203z" fill="" p-id="11888"></path></svg>