<?xml version="1.0" encoding="utf-8"?>
<!-- Generator: Adobe Illustrator 17.0.0, SVG Export Plug-In . SVG Version: 6.00 Build 0)  -->
<!DOCTYPE svg PUBLIC "-//W3C//DTD SVG 1.1//EN" "http://www.w3.org/Graphics/SVG/1.1/DTD/svg11.dtd">
<svg version="1.1" id="图层_1" xmlns="http://www.w3.org/2000/svg" xmlns:xlink="http://www.w3.org/1999/xlink" x="0px" y="0px"
	 width="200px" height="200px" viewBox="0 0 200 200" enable-background="new 0 0 200 200" xml:space="preserve">
<path d="M22.709,100.872c-0.997,1.006-1.542,2.335-1.531,3.747c0.011,1.415,0.579,2.755,1.593,3.747l12.237,10.891
	c1.686,1.772,2.628,1.772,5.25,1.772c2.622,0,4.301-1.407,5.298-2.414l10.455-8.981c2.071-2.071,2.071-5.434-0.011-7.499
	c-1.999-1.998-5.501-1.993-7.5,0.017l-3.785,2.467c0.362-33.971,28.375-61.876,62.488-61.876c34.337,0,62.282,27.901,62.282,62.181
	c0,34.282-27.945,62.178-62.282,62.178c-18.524,0-35.974-8.188-47.872-22.464c-0.997-1.574-2.711-2.546-4.543-2.546
	c-3.046,0-5.518,2.473-5.518,5.515c0,0.617,0.234,1.917,0.234,1.917s0.468,0.684,0.518,0.745c0.378,0.64,0.88,1.207,1.497,1.679
	c13.887,16.455,34.209,25.944,55.684,25.944c40.294,0,73.081-32.732,73.081-72.968c0-40.233-32.786-72.965-73.081-72.965
	c-38.337,0-69.521,28.934-72.734,66.603c-0.081,0.944-0.622,4.724-0.667,5.678l-3.592-3.437
	C25.801,97.462,22.709,100.872,22.709,100.872z"/>
</svg>
