<?xml version="1.0" standalone="no"?><!DOCTYPE svg PUBLIC "-//W3C//DTD SVG 1.1//EN" "http://www.w3.org/Graphics/SVG/1.1/DTD/svg11.dtd"><svg t="1535421901959" class="icon" style="" viewBox="0 0 1024 1024" version="1.1" xmlns="http://www.w3.org/2000/svg" p-id="12011" xmlns:xlink="http://www.w3.org/1999/xlink" width="200" height="200"><defs><style type="text/css"></style></defs><path d="M876.804974 516.108946 858.411784 533.707243C858.181061 528.818663 855.409907 509.468002 854.997579 504.633987 838.54647 311.765844 678.887704 163.624135 482.601185 163.624135 276.292913 163.624135 108.428861 331.212568 108.428861 537.206835 108.428861 743.216824 276.294765 910.804331 482.601185 910.804331 592.554825 910.804331 696.605157 862.217854 767.704226 777.968617 770.86754 775.551085 773.434314 772.648011 775.37121 769.373153 775.627792 769.062406 778.02413 765.559112 778.02413 765.559112 778.02413 765.559112 779.221838 758.898413 779.221838 755.741934 779.221838 740.170401 766.563948 727.507489 750.970616 727.507489 741.590905 727.507489 732.811436 732.486829 727.708451 740.544036 666.787565 813.635076 577.446874 855.559004 482.60211 855.559004 306.797817 855.559004 163.719696 712.734093 163.719696 537.207758 163.719696 361.694375 306.796891 218.841719 482.60211 218.841719 657.265201 218.841719 800.691087 361.715222 802.542759 535.64898L783.161182 523.01974C772.925569 512.729968 754.997032 512.701299 744.762346 522.932804 734.100636 533.508351 734.100636 550.727025 744.704916 561.328468L798.235066 607.308791C803.338051 612.462 811.934504 619.666209 825.359155 619.666221 838.783801 619.666234 843.603736 619.666221 852.238411 610.595014L914.891641 554.833852C920.080772 549.75278 922.987504 542.893241 923.045856 535.648967 923.10051 528.419493 920.307717 521.617294 915.204732 516.465009 915.204732 516.465009 899.373347 499.006995 876.804974 516.108946Z" p-id="12012"></path></svg>